<svg width="928" height="294" viewBox="0 0 928 294" fill="none" xmlns="http://www.w3.org/2000/svg">
<mask id="mask0_180_4810" style="mask-type:alpha" maskUnits="userSpaceOnUse" x="0" y="1" width="216" height="278">
<path d="M5.3995 252.428L48.6333 277.37C51.9668 279.293 56.0729 279.293 59.406 277.369L210.61 190.103C213.945 188.178 216 184.62 216 180.769V68.5529C216 64.7026 213.946 61.1448 210.611 59.2197L113.428 3.1111C110.094 1.18595 105.986 1.18595 102.651 3.1111L5.46846 59.2197C2.134 61.1448 0.0798867 64.7027 0.0798867 68.553V186.992L0.00794348 243.079C0.00299672 246.935 2.05908 250.501 5.3995 252.428Z" fill="white"/>
</mask>
<g mask="url(#mask0_180_4810)">
<path d="M0 149.064H54.02V280.478L0 249.313V149.064Z" fill="#EEEFF0"/>
<path d="M108.04 149.064H54.0198V280.478L108.04 249.313V149.064Z" fill="#C8CCD0"/>
<path d="M108.04 0L216 62.3308V186.992L108.04 249.323L0.0800171 186.992V62.3308L108.04 0Z" fill="#C8CCD0"/>
<path d="M108.04 0L216 62.3308L108.04 124.662L0.0802002 62.3308L108.04 0Z" fill="white"/>
<path fill-rule="evenodd" clip-rule="evenodd" d="M108.04 124.662L0.0800988 62.3308L108.04 0.000100938L108.04 3.05176e-05L0.079834 62.3308V186.992L108.04 249.323L108.04 249.323V124.661L108.04 124.662Z" fill="#EEEFF0"/>
<mask id="mask1_180_4810" style="mask-type:alpha" maskUnits="userSpaceOnUse" x="54" y="63" width="109" height="124">
<path d="M105.345 63.8863C107.013 62.9237 109.067 62.9237 110.734 63.8863L159.325 91.9406C160.993 92.9032 162.02 94.6821 162.02 96.6072V152.716C162.02 154.641 160.993 156.42 159.325 157.382L110.734 185.437C109.067 186.399 107.013 186.399 105.345 185.437L56.754 157.382C55.0867 156.42 54.0597 154.641 54.0597 152.716V96.6072C54.0597 94.6821 55.0867 92.9032 56.754 91.9406L105.345 63.8863Z" fill="#E3225C"/>
</mask>
<g mask="url(#mask1_180_4810)">
<path d="M108.04 62.3307L162.02 93.4961V155.827L108.04 186.992L54.0598 155.827V93.4961L108.04 62.3307Z" fill="#E3225C"/>
<path fill-rule="evenodd" clip-rule="evenodd" d="M108.04 186.992L162.02 155.827V93.4961L108.04 62.3307L108.04 62.3307L108.04 186.992Z" fill="#C5143E"/>
<path fill-rule="evenodd" clip-rule="evenodd" d="M162.02 93.4961L108.04 124.661L54.0599 93.4961L104.448 64.4048C106.671 63.1214 109.409 63.1214 111.632 64.4048L162.02 93.4961Z" fill="#F53A74"/>
</g>
</g>
<path d="M289 61.251V217.868H319.864V166.408H347.373C362.357 166.408 375.105 161.262 385.393 151.194C395.681 141.126 400.825 128.596 400.825 113.829C400.825 99.0628 395.681 86.5334 385.393 76.4652C375.105 66.397 362.357 61.251 347.373 61.251H289ZM319.864 137.546V90.1132H347.373C360.568 90.1132 370.185 100.181 370.185 113.829C370.185 127.254 360.568 137.546 347.373 137.546H319.864Z" fill="white"/>
<path d="M441.552 105.999H412.701V217.868H441.552V164.394C441.552 153.655 444.906 146.048 451.84 141.349C458.773 136.651 466.824 134.861 475.546 135.98V103.761C460.338 103.761 446.919 110.921 441.552 125.24V105.999Z" fill="white"/>
<path d="M502.26 92.5744C512.101 92.5744 520.152 84.5198 520.152 74.899C520.152 65.2783 512.101 57 502.26 57C492.643 57 484.592 65.2783 484.592 74.899C484.592 84.5198 492.643 92.5744 502.26 92.5744ZM516.798 217.868V105.999H487.947V217.868H516.798Z" fill="white"/>
<path d="M600.906 102.866C585.697 102.866 574.515 108.012 567.582 118.528V105.999H538.731V217.868H567.582V157.458C567.582 138.888 577.199 129.715 592.183 129.715C605.602 129.715 614.324 137.769 614.324 152.76V217.868H643.175V149.18C643.175 134.637 639.15 123.45 631.098 115.172C623.27 106.894 613.206 102.866 600.906 102.866Z" fill="white"/>
<path d="M727.301 105.999H702.028V74.6753L673.177 83.4011V105.999H653.72V133.742H673.177V180.28C673.177 210.932 687.715 222.342 727.301 217.868V191.69C710.751 192.585 702.028 192.362 702.028 180.28V133.742H727.301V105.999Z" fill="white"/>
<path d="M848.369 173.791C849.039 169.54 849.487 165.737 849.487 161.933C849.487 145.153 844.119 131.281 833.384 119.87C822.872 108.46 809.23 102.866 792.903 102.866C775.682 102.866 761.369 108.46 750.41 119.87C739.451 131.057 733.86 145.153 733.86 161.933C733.86 178.937 739.451 193.033 750.634 204.22C761.816 215.407 776.577 221 795.14 221C816.61 221 832.937 212.945 843.896 197.06L820.636 183.636C815.045 191.019 806.546 194.823 795.587 194.823C778.366 194.823 767.855 187.887 764.053 173.791H848.369ZM763.605 151.417C766.96 137.098 777.472 128.82 792.903 128.82C806.099 128.82 817.281 136.203 820.636 151.417H763.605Z" fill="white"/>
<path d="M894.005 105.999H865.154V217.868H894.005V164.394C894.005 153.655 897.36 146.048 904.293 141.349C911.226 136.651 919.278 134.861 928 135.98V103.761C912.792 103.761 899.373 110.921 894.005 125.24V105.999Z" fill="white"/>
<path d="M633.126 278.274C634.722 276.675 634.722 273.934 633.126 272.335C631.53 270.736 628.793 270.736 627.197 272.335C625.601 273.934 625.601 276.675 627.197 278.274C628.793 279.873 631.53 279.873 633.126 278.274Z" fill="#F53A74"/>
<path d="M646.691 250.634C646.691 246.751 650.339 244.619 654.671 244.619C659.308 244.619 662.348 246.371 663.792 249.949L667.973 247.513C665.768 242.716 660.828 239.746 654.671 239.746C650.947 239.746 647.831 240.812 645.322 242.868C642.89 244.924 641.674 247.513 641.674 250.634C641.674 258.858 649.655 260.609 656.039 262.208C660.372 263.35 663.868 265.254 663.868 268.68C663.868 272.868 660.068 274.771 655.127 274.771C650.035 274.771 646.159 272.335 644.714 268.375L640.458 270.888C642.51 276.066 647.831 279.644 655.127 279.644C659.156 279.644 662.5 278.655 665.008 276.599C667.593 274.543 668.885 271.954 668.885 268.68C668.885 260.457 660.904 258.705 654.519 257.107C650.187 255.964 646.691 254.061 646.691 250.634Z" fill="#F53A74"/>
<path d="M688.853 272.563L674.563 240.66H669.243L686.268 278.959L685.28 281.32C682.924 287.106 679.428 289.771 674.867 289.238V293.959C681.556 294.492 687.256 289.771 690.221 282.233L706.486 240.66H701.166L688.853 272.563Z" fill="#F53A74"/>
<path d="M712.68 250.634C712.68 246.751 716.328 244.619 720.661 244.619C725.297 244.619 728.338 246.371 729.782 249.949L733.962 247.513C731.758 242.716 726.817 239.746 720.661 239.746C716.937 239.746 713.82 240.812 711.312 242.868C708.88 244.924 707.664 247.513 707.664 250.634C707.664 258.858 715.644 260.609 722.029 262.208C726.361 263.35 729.858 265.254 729.858 268.68C729.858 272.868 726.057 274.771 721.117 274.771C716.024 274.771 712.148 272.335 710.704 268.375L706.448 270.888C708.5 276.066 713.82 279.644 721.117 279.644C725.145 279.644 728.49 278.655 730.998 276.599C733.582 274.543 734.874 271.954 734.874 268.68C734.874 260.457 726.893 258.705 720.509 257.107C716.176 255.964 712.68 254.061 712.68 250.634Z" fill="#F53A74"/>
<path d="M760.38 240.66H749.435V230L744.418 231.523V240.66H736.438V245.533H744.418V268.604C744.418 277.436 749.739 280.33 760.38 278.731V274.315C753.083 274.619 749.435 275.152 749.435 268.604V245.533H760.38V240.66Z" fill="#F53A74"/>
<path d="M782.477 239.746C776.625 239.746 771.912 241.65 768.188 245.457C764.464 249.264 762.639 253.985 762.639 259.695C762.639 265.482 764.54 270.279 768.264 274.01C771.988 277.741 776.853 279.644 782.857 279.644C790.23 279.644 796.234 276.294 799.579 270.888L795.17 268.299C793.042 272.183 788.71 274.771 782.933 274.771C774.801 274.771 768.796 269.898 767.808 262.208H801.175C801.251 261.218 801.327 260.381 801.327 259.848C801.327 254.442 799.579 249.721 796.082 245.761C792.662 241.726 788.102 239.746 782.477 239.746ZM782.477 244.619C785.898 244.619 788.938 245.761 791.522 247.969C794.106 250.178 795.626 253.299 796.158 257.335H767.808C768.796 249.797 774.572 244.619 782.477 244.619Z" fill="#F53A74"/>
<path d="M848.298 239.746C842.826 239.746 838.721 242.03 835.985 246.675C833.781 242.03 829.904 239.746 824.432 239.746C819.415 239.746 815.539 241.878 812.803 246.218V240.66H807.786V278.731H812.803V257.639C812.803 248.807 817.667 244.619 823.748 244.619C829.22 244.619 832.641 248.274 832.641 254.975V278.731H837.657V257.639C837.657 248.731 841.914 244.619 848.222 244.619C853.771 244.619 857.495 248.35 857.495 254.975V278.731H862.511V254.975C862.511 245.609 856.811 239.746 848.298 239.746Z" fill="#F53A74"/>
<path d="M874.647 250.634C874.647 246.751 878.295 244.619 882.627 244.619C887.264 244.619 890.304 246.371 891.748 249.949L895.928 247.513C893.724 242.716 888.784 239.746 882.627 239.746C878.903 239.746 875.787 240.812 873.278 242.868C870.846 244.924 869.63 247.513 869.63 250.634C869.63 258.858 877.611 260.609 883.995 262.208C888.328 263.35 891.824 265.254 891.824 268.68C891.824 272.868 888.024 274.771 883.083 274.771C877.991 274.771 874.114 272.335 872.67 268.375L868.414 270.888C870.466 276.066 875.787 279.644 883.083 279.644C887.112 279.644 890.456 278.655 892.964 276.599C895.548 274.543 896.841 271.954 896.841 268.68C896.841 260.457 888.86 258.705 882.475 257.107C878.143 255.964 874.647 254.061 874.647 250.634Z" fill="#F53A74"/>
</svg>
